# xmcd
#
# Track frame offsets: 
#        150
#        22653
#        43606
#        58994
#        91475
#        118010
#        158042
#        191482
#        209877
#        234031
#        254994
#        270962
#
# Disc length: 3943 seconds
#
# Revision: 0
# Processed by: cddbd v1.5.2PL0 Copyright (c) Steve Scherf et al.
# Submitted via: ExactAudioCopy v0.99pb4
#
DISCID=a40f650c
DTITLE=Vince Agwada - Basic Blue
DYEAR=2011
DGENRE=Blues-Rock 
TTITLE0=Chi-Town State Of Mind
TTITLE1=Blindsided
TTITLE2=President
TTITLE3=Big City Blues
TTITLE4=Head Too Tight
TTITLE5=Black Rain
TTITLE6=Shake It Up
TTITLE7=Basic Blue
TTITLE8=Sirius Biz
TTITLE9=Right On Time
TTITLE10=Train
TTITLE11=She Never Said...
EXTD=
EXTT0=
EXTT1=
EXTT2=
EXTT3=
EXTT4=
EXTT5=
EXTT6=
EXTT7=
EXTT8=
EXTT9=
EXTT10=
EXTT11=
PLAYORDER=
